<svg width="14" height="14" viewBox="0 0 14 14" fill="none" xmlns="http://www.w3.org/2000/svg">
<rect x="0.642049" y="0.701535" width="12.7677" height="12.7677" stroke="white" stroke-width="0.41186"/>
<g clip-path="url(#clip0_1_159)">
<path d="M6.97529 5.42015C6.04963 5.42015 5.30298 6.16294 5.30298 7.08384C5.30298 8.00473 6.04963 8.74752 6.97529 8.74752C7.90095 8.74752 8.64759 8.00473 8.64759 7.08384C8.64759 6.16294 7.90095 5.42015 6.97529 5.42015ZM6.97529 8.16545C6.3771 8.16545 5.88807 7.68039 5.88807 7.08384C5.88807 6.48728 6.37564 6.00222 6.97529 6.00222C7.57493 6.00222 8.0625 6.48728 8.0625 7.08384C8.0625 7.68039 7.57347 8.16545 6.97529 8.16545ZM9.10606 5.35209C9.10606 5.56784 8.9314 5.74014 8.716 5.74014C8.49914 5.74014 8.32594 5.56639 8.32594 5.35209C8.32594 5.1378 8.50059 4.96405 8.716 4.96405C8.9314 4.96405 9.10606 5.1378 9.10606 5.35209ZM10.2136 5.74594C10.1889 5.22612 10.0696 4.76568 9.68678 4.38632C9.30545 4.00695 8.84262 3.88822 8.32012 3.86216C7.7816 3.83175 6.16752 3.83175 5.629 3.86216C5.10795 3.88678 4.64512 4.00551 4.26234 4.38487C3.87956 4.76423 3.76167 5.22468 3.73547 5.74449C3.70491 6.28023 3.70491 7.886 3.73547 8.42173C3.76021 8.94155 3.87956 9.40199 4.26234 9.78135C4.64512 10.1607 5.1065 10.2794 5.629 10.3055C6.16752 10.3359 7.7816 10.3359 8.32012 10.3055C8.84262 10.2809 9.30545 10.1622 9.68678 9.78135C10.0681 9.40199 10.1875 8.94155 10.2136 8.42173C10.2442 7.886 10.2442 6.28167 10.2136 5.74594ZM9.51795 8.99657C9.40442 9.28037 9.18465 9.499 8.89793 9.61339C8.46857 9.7828 7.44976 9.74371 6.97529 9.74371C6.50081 9.74371 5.48055 9.78135 5.05265 9.61339C4.76738 9.50045 4.54761 9.28181 4.43263 8.99657C4.26234 8.56943 4.30164 7.55586 4.30164 7.08384C4.30164 6.61181 4.2638 5.5968 4.43263 5.1711C4.54615 4.8873 4.76592 4.66867 5.05265 4.55428C5.482 4.38487 6.50081 4.42396 6.97529 4.42396C7.44976 4.42396 8.47003 4.38632 8.89793 4.55428C9.1832 4.66722 9.40297 4.88586 9.51795 5.1711C9.68823 5.59824 9.64894 6.61181 9.64894 7.08384C9.64894 7.55586 9.68823 8.57087 9.51795 8.99657Z" fill="white"/>
</g>
<defs>
<clipPath id="clip0_1_159">
<rect width="6.58976" height="7.41348" fill="white" transform="translate(3.73105 3.3783)"/>
</clipPath>
</defs>
</svg>
