<svg width="15" height="14" viewBox="0 0 15 14" fill="none" xmlns="http://www.w3.org/2000/svg">
<rect x="1.10353" y="0.701535" width="12.7677" height="12.7677" stroke="white" stroke-width="0.41186"/>
<g clip-path="url(#clip0_1_149)">
<path d="M11.1032 4.90467C10.8285 5.02184 10.5371 5.09874 10.2388 5.13283C10.5495 4.95351 10.7881 4.66954 10.9005 4.33119C10.6051 4.49997 10.2819 4.61889 9.94485 4.68281C9.67031 4.40121 9.27921 4.22522 8.84634 4.22522C8.0152 4.22522 7.34134 4.874 7.34134 5.67418C7.34134 5.78776 7.35466 5.89834 7.38031 6.00441C6.12956 5.94397 5.02065 5.36712 4.27836 4.49046C4.14885 4.70446 4.07463 4.9534 4.07463 5.21891C4.07463 5.72163 4.34034 6.16512 4.74413 6.42498C4.50515 6.41777 4.27141 6.35562 4.06245 6.24372C4.06237 6.24979 4.06237 6.25586 4.06237 6.26195C4.06237 6.964 4.58112 7.54966 5.26956 7.68277C5.04795 7.7408 4.81549 7.74929 4.58995 7.7076C4.78144 8.28327 5.33725 8.70217 5.99577 8.7139C5.48072 9.10251 4.83179 9.33417 4.12673 9.33417C4.00523 9.33417 3.88546 9.3273 3.76772 9.31392C4.43373 9.72505 5.22478 9.96493 6.07466 9.96493C8.84284 9.96493 10.3565 7.75698 10.3565 5.84222C10.3565 5.77937 10.3551 5.71688 10.3522 5.65475C10.6468 5.44968 10.9011 5.19568 11.1032 4.90467Z" fill="white"/>
</g>
<defs>
<clipPath id="clip0_1_149">
<rect width="7.41348" height="5.76604" fill="white" transform="translate(3.78068 4.20239)"/>
</clipPath>
</defs>
</svg>
